PathFileType	4	(X/Y/Z)	C:\Users\Biomechanik\SynologyDrive\AlexP\Athlete_03\Athlete_3_25_03_31\Squat_bar_04\marker_experimental.trc
DataRate	CameraRate	NumFrames	NumMarkers	Units	OrigDataRate	OrigDataStartFrame	OrigNumFrames
200.000000	200.000000	4	55	mm	200.000000	172	461
Frame#	Time	BL			BR			GLAB			RFHD			LFHD			C7			T6			SPINMOL			SPINM2			SPINM3			T12			BELTOL			BELT2			BELT3			SACROL			SACR2			SACR3			LTHOL			LTH2			LTH3			LSHAOL			LSHA2			LSHA3			LHEE			LTOE			LM5			RTHOL			RTH2			RTH3			RSHAOL			RSHA2			RSHA3			RHEE			RTOE			RM5			STRN			XIPH			LACR			LUAOL			LUA2			LUA3			LLAOL			LLA2			LLA3			LWRR			LWRU			RACR			RUAOL			RUA2			RUA3			RLAOL			RLA2			RLA3			RWRR			RWRU			
		X1	Y1	Z1	X2	Y2	Z2	X3	Y3	Z3	X4	Y4	Z4	X5	Y5	Z5	X6	Y6	Z6	X7	Y7	Z7	X8	Y8	Z8	X9	Y9	Z9	X10	Y10	Z10	X11	Y11	Z11	X12	Y12	Z12	X13	Y13	Z13	X14	Y14	Z14	X15	Y15	Z15	X16	Y16	Z16	X17	Y17	Z17	X18	Y18	Z18	X19	Y19	Z19	X20	Y20	Z20	X21	Y21	Z21	X22	Y22	Z22	X23	Y23	Z23	X24	Y24	Z24	X25	Y25	Z25	X26	Y26	Z26	X27	Y27	Z27	X28	Y28	Z28	X29	Y29	Z29	X30	Y30	Z30	X31	Y31	Z31	X32	Y32	Z32	X33	Y33	Z33	X34	Y34	Z34	X35	Y35	Z35	X36	Y36	Z36	X37	Y37	Z37	X38	Y38	Z38	X39	Y39	Z39	X40	Y40	Z40	X41	Y41	Z41	X42	Y42	Z42	X43	Y43	Z43	X44	Y44	Z44	X45	Y45	Z45	X46	Y46	Z46	X47	Y47	Z47	X48	Y48	Z48	X49	Y49	Z49	X50	Y50	Z50	X51	Y51	Z51	X52	Y52	Z52	X53	Y53	Z53	X54	Y54	Z54	X55	Y55	Z55	

173	0.86	206.403564453125	1004.643615722656	-2236.775634765625	248.6970825195312	1065.663208007812	-217.1157836914062	527.0204467773438	1197.01611328125	-1189.163696289062	476.8367309570312	1223.428100585938	-1126.626708984375	485.0173034667969	1222.763305664062	-1261.861572265625	283.6912536621094	1094.928833007812	-1196.865234375	157.7164764404297	981.7713623046876	-1204.10546875	134.6999206542969	959.1838989257814	-1224.300170898438	126.1590270996094	953.3038940429689	-1175.028198242188	97.54541778564453	905.8670043945314	-1211.525268554688	67.95641326904297	850.5238647460939	-1211.383544921875	30.72465705871582	835.5389404296876	-1226.03955078125	29.23724555969238	832.2738037109376	-1175.514404296875	-5.842717170715332	784.5427246093751	-1204.926513671875	-57.50785827636719	686.9719848632814	-1231.234130859375	-57.31499481201172	682.7330322265626	-1179.709838867188	-73.2012939453125	625.8796386718751	-1209.449829101562	123.1661224365234	494.1141662597657	-1502.613891601562	153.1487731933594	420.184783935547	-1508.288452148438	170.3376159667969	463.9292602539064	-1528.005004882812	219.4926300048828	303.6757812500001	-1607.440673828125	163.7636871337891	257.8243408203126	-1573.165893554688	207.1060028076172	244.141571044922	-1595.639892578125	113.850471496582	70.96377563476571	-1464.168579101562	315.8424377441406	50.03286361694345	-1540.788330078125	237.2386169433594	25.45127487182627	-1620.872192382812	107.2695083618164	481.7997131347657	-919.7897338867188	164.7245635986328	510.8720703125001	-872.3236083984375	158.6060943603516	464.2802124023438	-888.3745727539062	198.8882751464844	317.6488647460938	-814.47314453125	205.2129516601562	239.1104125976563	-811.3016357421875	171.2249298095703	266.0125427246094	-835.996826171875	92.0223388671875	66.05868530273443	-966.6172485351562	280.3686828613281	46.88197708129888	-870.5167846679688	190.9028930664062	37.84695053100591	-798.5157470703125	393.0350036621094	929.9083862304689	-1204.183959960938	346.2587280273438	787.6537475585939	-1199.9931640625	319.4678955078125	1041.334594726562	-1371.169677734375	193.1343688964844	936.7036743164064	-1461.544799804688	140.1935424804688	900.1950683593751	-1448.692504882812	168.7214508056641	881.5746459960939	-1486.658203125	133.4022674560547	817.5802001953126	-1553.991821289062	202.8723602294922	805.0275878906251	-1590.203857421875	179.2613677978516	848.7634887695314	-1580.719116210938	243.8736877441406	921.1083374023439	-1621.459838867188	258.7805786132812	948.9429931640626	-1549.041137695312	335.2587585449219	1035.022338867188	-1037.37255859375	211.7452850341797	938.8018798828126	-949.1345214843749	180.1314544677734	888.287841796875	-919.494140625	159.0686187744141	902.8392333984376	-965.2217407226562	168.3434448242188	823.476318359375	-834.7412719726562	179.9299621582031	901.7683715820312	-825.2314453125	211.7643127441406	863.201171875	-814.9139404296875	255.856689453125	944.8395385742188	-797.3439331054686	283.3898010253906	971.6111450195312	-867.7250976562499	
174	0.865	206.642333984375	1000.60546875	-2236.834716796875	249.1041564941406	1061.675415039062	-217.1758422851562	527.4557495117188	1192.740966796875	-1189.222045898438	477.2826538085938	1219.190063476562	-1126.691162109375	485.4685363769531	1218.499267578125	-1261.93701171875	284.0455017089844	1090.872192382812	-1196.905029296875	157.9229125976562	977.9897460937501	-1204.13671875	134.8691253662109	955.4879760742189	-1224.335205078125	126.3351516723633	949.6124267578126	-1175.080810546875	97.58782196044922	902.2601928710939	-1211.558471679688	67.90396881103516	846.9866333007814	-1211.384033203125	30.67044830322266	832.1557006835939	-1226.00244140625	29.19803619384766	828.8908691406251	-1175.504638671875	-5.988658428192139	781.2198486328126	-1204.916137695312	-57.88677597045898	683.5102539062501	-1231.220581054688	-57.69464111328125	679.2838134765626	-1179.696655273438	-73.54386138916016	622.4171752929689	-1209.4296875	123.1192626953125	492.0077209472657	-1502.787841796875	153.5630950927734	418.2921142578126	-1508.87548828125	170.4389190673828	462.2461547851564	-1528.39794921875	219.7375946044922	303.4380187988282	-1607.876220703125	163.9579620361328	257.709442138672	-1573.515625	207.2802429199219	243.9391479492188	-1595.980834960938	113.8641357421875	71.00245666503915	-1464.170288085938	315.837890625	50.03902053833017	-1540.813232421875	237.2230529785156	25.42098999023447	-1620.8935546875	107.4476547241211	479.6010437011719	-919.4002075195312	164.7659149169922	509.2441101074219	-872.1153564453125	158.8939514160156	462.5331115722657	-887.9172973632812	199.3634948730469	317.3427124023438	-814.0910034179688	205.54296875	238.7894134521485	-811.02099609375	171.6125640869141	265.7963562011719	-835.6866455078125	92.06275939941406	66.07925415039068	-966.6275634765625	280.3810729980469	46.86574172973638	-870.5230712890625	190.9035339355469	37.84389877319341	-798.516357421875	393.2102355957031	925.7112426757814	-1204.196044921875	346.2614135742188	783.5160522460939	-1199.96044921875	319.8215026855469	1037.153442382812	-1371.234008789062	193.3023986816406	932.7436523437501	-1461.620239257812	140.3071441650391	896.3449096679689	-1448.743530273438	168.7988891601562	877.6530761718751	-1486.705200195312	133.3229064941406	813.7415161132814	-1554.0244140625	202.7852630615234	801.0528564453126	-1590.238647460938	179.2546081542969	844.8302001953126	-1580.753173828125	243.9887390136719	917.0607299804689	-1621.502807617188	258.9419250488281	944.8695678710939	-1549.074340820312	335.5706176757812	1030.907104492188	-1037.4013671875	211.9671325683594	934.8486938476564	-949.1044921874999	180.2881622314453	884.3880004882812	-919.4493408203125	159.2280883789062	898.9763793945314	-965.1698608398438	168.4215087890625	819.594482421875	-834.714111328125	180.1185302734375	897.8684692382812	-825.2118530273438	211.8993377685547	859.2681274414062	-814.9087524414062	256.1002807617188	940.8534545898438	-797.3651123046874	283.6623840332031	967.5691528320312	-867.7471313476561	
175	0.87	206.8714904785156	996.5710449218751	-2236.89501953125	249.4994964599609	1057.698120117188	-217.2364807128906	527.8837890625	1188.479248046875	-1189.28173828125	477.7203063964844	1214.963134765625	-1126.757080078125	485.9171447753906	1214.250854492188	-1262.019409179688	284.3939514160156	1086.823974609375	-1196.95361328125	158.1242523193359	974.2202758789064	-1204.17822265625	135.0348205566406	951.8005981445314	-1224.381225585938	126.5080261230469	945.9300537109376	-1175.139404296875	97.62899780273438	898.6610717773439	-1211.60107421875	67.85059356689453	843.4519042968751	-1211.39013671875	30.61119651794434	828.7714843750001	-1225.976196289062	29.15536308288574	825.5092163085939	-1175.503784179688	-6.137702941894531	777.8930053710939	-1204.923706054688	-58.25926971435547	680.0298461914064	-1231.209716796875	-58.06684112548828	675.8262939453126	-1179.68408203125	-73.87184143066406	618.9379272460939	-1209.401123046875	123.0858154296875	489.8929443359376	-1502.946044921875	153.9918823242188	416.3943481445314	-1509.449829101562	170.5522308349609	460.557098388672	-1528.772827148438	219.9832153320312	303.2013244628907	-1608.30078125	164.1560668945312	257.5932922363282	-1573.856689453125	207.4573516845703	243.7374572753907	-1596.310913085938	113.8772430419922	71.0394821166993	-1464.17138671875	315.8346862792969	50.04384613037119	-1540.835571289062	237.2088012695312	25.39299392700205	-1620.911865234375	107.6259460449219	477.4237060546876	-919.0043334960938	164.8075256347656	507.6284179687501	-871.9044189453125	159.1779022216797	460.8016662597657	-887.4583129882812	199.8281097412109	317.0415649414063	-813.712158203125	205.8625335693359	238.4739532470704	-810.7417602539062	171.9909820556641	265.5838317871094	-835.3807983398438	92.10434722900391	66.09799194335943	-966.6356811523438	280.3924560546875	46.85017776489263	-870.5299072265625	190.9036407470703	37.8398933410645	-798.5165405273438	393.3884582519531	921.5252075195314	-1204.214233398438	346.2693481445312	779.3906250000001	-1199.934936523438	320.169677734375	1032.979614257812	-1371.304321289062	193.4747467041016	928.7888793945314	-1461.69482421875	140.4154357910156	892.5092163085939	-1448.797973632812	168.8639984130859	873.7412719726564	-1486.75732421875	133.2277984619141	809.9127197265626	-1554.054321289062	202.6859283447266	797.0840454101564	-1590.270751953125	179.2372741699219	840.9046020507814	-1580.786376953125	244.0951232910156	913.0179443359376	-1621.546264648438	259.0961303710938	940.8009033203126	-1549.108642578125	335.8797912597656	1026.799438476562	-1037.438354492188	212.1873474121094	930.9053344726564	-949.0786743164061	180.4435424804688	880.4988403320312	-919.4102172851562	159.3852386474609	895.1269531250001	-965.1227416992188	168.491943359375	815.72119140625	-834.6969604492188	180.2975616455078	893.9783325195312	-825.200927734375	212.0282592773438	855.3435668945312	-814.9118041992188	256.3369445800781	936.87451171875	-797.3911132812499	283.9360046386719	963.535400390625	-867.7718505859374	
176	0.875	207.0915679931641	992.5424194335939	-2236.95556640625	249.8834991455078	1053.734375	-217.2973632812499	528.3043823242188	1184.2314453125	-1189.343383789062	478.149658203125	1210.747680664062	-1126.825317382812	486.3632507324219	1210.018188476562	-1262.109252929688	284.7352600097656	1082.78564453125	-1197.011352539062	158.3192901611328	970.4622192382814	-1204.228759765625	135.1966400146484	948.1205444335939	-1224.436645507812	126.6773452758789	942.2554321289064	-1175.202270507812	97.66796112060547	895.0678710937501	-1211.651245117188	67.79585266113281	839.9190063476564	-1211.399780273438	30.54721641540527	825.3869628906251	-1225.958618164062	29.10976028442383	822.1287231445314	-1175.50927734375	-6.288216590881348	774.5620117187501	-1204.946411132812	-58.62393569946289	676.5313110351564	-1231.199462890625	-58.43096923828125	672.3602905273439	-1179.669555664062	-74.18540191650391	615.4422607421876	-1209.36328125	123.0669174194336	487.7743530273439	-1503.08984375	154.4335479736328	414.4954223632814	-1510.014404296875	170.6784362792969	458.8657226562501	-1529.131225585938	220.2308807373047	302.9658203125001	-1608.71337890625	164.3594207763672	257.4762573242189	-1574.187255859375	207.6378784179688	243.5367889404298	-1596.629516601562	113.8899688720703	71.07474517822274	-1464.171752929688	315.8329772949219	50.04729843139658	-1540.855102539062	237.1960144042969	25.36745071411143	-1620.9267578125	107.8054962158203	475.2674255371094	-918.6034545898438	164.8492736816406	506.0242309570313	-871.6907958984375	159.4586029052734	459.0848693847657	-886.9979858398438	200.2834625244141	316.7443542480469	-813.3355102539062	206.1732177734375	238.1628875732422	-810.4636840820312	172.3612060546875	265.3740234375001	-835.0781860351562	92.14727783203125	66.11482238769537	-966.6419067382812	280.4028625488281	46.83534622192388	-870.5369262695312	190.9031066894531	37.83492279052739	-798.5161743164062	393.5684509277344	917.3506469726564	-1204.238647460938	346.282470703125	775.2779541015626	-1199.917358398438	320.51123046875	1028.81396484375	-1371.380615234375	193.6495513916016	924.8399047851564	-1461.7685546875	140.5169525146484	888.6871337890626	-1448.85693359375	168.9167327880859	869.8397827148439	-1486.81494140625	133.1173095703125	806.0944824218751	-1554.083618164062	202.5757446289062	793.1224365234376	-1590.301391601562	179.2100982666016	836.9876708984376	-1580.819946289062	244.1930847167969	908.9819335937501	-1621.590454101562	259.2427368164062	936.7385864257814	-1549.144165039062	336.1858215332031	1022.700012207031	-1037.483520507812	212.4054718017578	926.9733886718751	-949.057373046875	180.5969696044922	876.6216430664062	-919.3768920898438	159.5399017333984	891.2914428710939	-965.0806884765625	168.5551452636719	811.8580932617188	-834.6892700195312	180.4663238525391	890.0997314453125	-825.19921875	212.1517791748047	851.429443359375	-814.9227294921875	256.5665893554688	932.9046630859375	-797.4218749999999	284.2113647460938	959.51123046875	-867.7989501953124	
